# xmcd
#
# Track frame offsets: 
#        150
#        12087
#        29304
#        47796
#        57759
#        77673
#        89804
#        100994
#        116404
#        128151
#        142743
#        158111
#
# Disc length: 2321 seconds
#
# Revision: 1
# Processed by: cddbd v1.5.2PL0 Copyright (c) Steve Scherf et al.
# Submitted via: ExactAudioCopyFreeDBPlugin 1.0
#
DISCID=92090f0c
DTITLE=Junior Brown - Greatest Hits
DYEAR=2005
DGENRE=Country
TTITLE0=Highway Patrol
TTITLE1=My Wife Thinks Your Dead
TTITLE2=Sugar Foot Rag
TTITLE3=My Baby Don't Dance To Nothin' But Ernest Tubb
TTITLE4=Freeborn Man
TTITLE5=Too Many Nights In A Roadhouse
TTITLE6=Broke Down South Of Dallas
TTITLE7=Junior Brown (Vocal Duet With Red Simpson) - Semi-Crazy
TTITLE8=Venom Wearin' Denim
TTITLE9=Joe The Singing Janitor
TTITLE10=Freedom Machine
TTITLE11=Long Walk Back To San Antone
EXTD=
EXTT0=
EXTT1=
EXTT2=
EXTT3=
EXTT4=
EXTT5=
EXTT6=
EXTT7=
EXTT8=
EXTT9=
EXTT10=
EXTT11=
PLAYORDER=
